<?xml version="1.0" encoding="utf-8"?>
<!-- Generator: Adobe Illustrator 23.0.1, SVG Export Plug-In . SVG Version: 6.00 Build 0)  -->
<svg version="1.1" id="Capa_1" xmlns="http://www.w3.org/2000/svg" xmlns:xlink="http://www.w3.org/1999/xlink" x="0px" y="0px"
	 viewBox="0 0 1920 1191" style="enable-background:new 0 0 1920 1191;" xml:space="preserve">
<style type="text/css">
	.st0{fill:#FFFFFF;}
</style>
<g id="Grupo_2175" transform="translate(-6011 -877)">
	<g id="Logo_PV_Inferior" transform="translate(6627.694 1111.366)">
		<path id="A" class="st0" d="M1200.3,951.1c-22.3,0-44.6,0-66.9,0.1c-0.7-0.1-1.4-0.1-2.1-0.3c0.4-0.7,0.5-1.6,0.9-1.8
			c0.8-0.2,1.6-0.2,2.5-0.2c4.7-0.4,8.2-4.5,7.8-9.2c0-0.1,0-0.1,0-0.2c-0.1-1.3-0.4-2.6-0.9-3.8c-3.4-8.5-6.8-17.1-10.2-25.6
			c-0.2-0.4-0.4-0.7-0.7-1h-50.2c-0.4,0.9-0.9,1.8-1.3,2.7c-3.1,7.3-6.2,14.7-9.3,22.1c-0.6,1.3-0.9,2.7-1.4,4
			c-1.3,4.6,1.4,9.5,6.1,10.7c0.6,0.2,1.3,0.3,2,0.3c0.7-0.1,1.4,0,2.1,0.2c0.4,0.2,0.5,0.9,0.9,1.7c-1.2,0.1-2.1,0.3-3,0.3H1043
			c-8.6-0.8-7-3.1-4.6-5c2,1.5,4.7,1.4,6.6-0.2c4.1-2.8,7.2-6.6,9.1-11.2c7.6-17.2,15.2-34.4,22.8-51.7c9.9-22.4,20-44.8,29.8-67.3
			c2.8-6.4,5.1-13,7.9-20.1c0.4-0.3,1.2,0,1.7,1.1c0.4,0.7,0.7,1.5,1,2.3c20.5,44.9,40.9,89.8,61.4,134.6c0.6,1.4,1.3,2.8,2.1,4.2
			c4.4,7.3,10.6,11.4,19.4,11.1L1200.3,951.1z M1106.7,847.7l-0.8,0.1l-21.6,51.6c6.9,0.7,39.8,0.4,42.6-0.4
			C1120.2,881.9,1113.5,864.8,1106.7,847.7z"/>
		<path id="R" class="st0" d="M1027.2,951.2c-8.2,0-16.4-1.2-24.3-3.6c-9.5-2.9-17.6-9-22.9-17.3c-2.4-3.6-4.5-7.3-6.4-11.2
			c-4.3-8.9-8.3-18-12.5-26.9c-1.2-2.5-2.5-4.9-4-7.2c-2.1-3.4-5.3-5.9-9-7.2c-1-0.3-2.2-0.5-1.4-2.7c1.3,0,2.8,0.1,4.2,0
			c3.1-0.1,6.2-0.4,9.2-0.9c8.2-1.9,14.9-7.8,17.7-15.7c4-10.2,4.4-21.5,1-31.9c-3-9.5-9.6-15.4-19.5-16.6c-6.5-0.8-13-0.5-19.8-0.7
			c-0.1,1.5-0.3,2.5-0.3,3.5c0,40.4,0,80.8,0,121.3c0,9.2,5.1,14.4,14.3,14.8c1.7,0.1,1.7,0.1,2.3,1.9H890c0.4-0.8,0.6-1.6,1.1-1.8
			c0.7-0.2,1.4-0.2,2.1-0.1c7.3-0.1,13.2-5.8,13.5-13.1c0.1-1.1,0.1-2.1,0.1-3.2c0-38,0-76.1,0-114.1c0-2-0.2-4-0.6-6
			c-1.5-5.9-6.6-10-12.7-10.3c-0.8,0-1.7,0-2.5-0.2c-0.4-0.1-0.6-0.8-1-1.7c1-0.2,2-0.3,3-0.4c24.5,0,48.9-0.1,73.4,0
			c10.4-0.1,20.7,2.3,30,7.1c12.7,6.7,18.7,17.5,19.3,31.6c0.3,5.5-0.4,11-2.1,16.2c-4.5,14-14.1,22.6-28.3,26.1
			c-1.1,0.3-2.2,0.5-3.4,0.8c0.3,0.3,0.4,0.6,0.6,0.7c9,4,15.1,10.9,20.4,19c5.7,8.7,11.3,17.4,17.4,25.8c3.9,5.1,8.1,10,12.5,14.6
			c1.7,1.6,3.7,3,5.7,4.2c2,1.5,4.7,1.4,6.6-0.2c3.7,1.3,2.7,3,1.2,5.2C1043,951.2,1035.2,951.2,1027.2,951.2z"/>
		<path id="D" class="st0" d="M714.8,951c0.5-0.9,0.7-1.7,1.1-1.9c0.8-0.2,1.6-0.2,2.5-0.2c7.1-0.4,12.8-6,13.2-13.1
			c0.1-0.8,0-1.7,0-2.5c0-38.8,0-77.5,0-116.2c0.2-3.4-0.8-6.7-2.8-9.4c-2.4-3.3-6.3-5.3-10.4-5.4c-0.8,0.1-1.7,0-2.5-0.2
			c-0.4-0.2-0.6-1-1-1.8c1.2-0.1,2-0.3,2.8-0.3c27.2,0,54.4-0.2,81.6,0.2c14.4-0.1,28.6,3.5,41.2,10.5c20.7,11.6,32.2,29.5,35,53
			c1.8,12.9,0.7,26.1-3.1,38.5c-7.3,22.1-22.6,36.2-44.3,43.8c-10.5,3.5-21.6,5.3-32.7,5.1c-25.6,0-51.3,0-76.9,0
			C717.3,951.2,716.3,951.1,714.8,951z M764.3,809.4v132.4c0.6,0.1,1.3,0.2,1.9,0.2c9.3,0,18.6,0.1,27.9-0.2
			c12.4-0.3,24-6.1,31.7-15.7c5.5-6.8,9.5-14.7,11.6-23.1c4-15.5,4.6-31.7,1.7-47.5c-1.5-9.9-5.4-19.4-11.2-27.6
			c-7.8-11.5-20.7-18.4-34.6-18.6c-8.9-0.3-17.9-0.1-26.8-0.2C765.9,809.2,765.2,809.3,764.3,809.4L764.3,809.4z"/>
		<path id="E" class="st0" d="M675.8,901.9c-0.3-2.1-0.5-3.7-0.7-5.4c-0.9-7.6-6.8-13.7-14.3-14.9c-0.9-0.2-1.9-0.3-2.8-0.4
			c-9.4,0-18.8,0-28.3,0c-0.2,0-0.4,0.2-0.9,0.4v59.9c1.3,0.1,2.4,0.2,3.6,0.2c8.2,0,16.5,0,24.7,0c15.2,0,26.9-6.5,34.9-19.3
			c2.4-4.4,4.6-8.9,6.5-13.5c0.5-1.1,0.7-2.3,2.8-1.7c-3.3,14.5-6.5,28.9-9.8,43.6H579.2c0.7-0.9,1-1.7,1.5-1.9
			c0.7-0.2,1.4-0.2,2.1-0.1c7.1-0.3,12.8-5.9,13.3-13c0.1-0.7,0-1.4,0-2.1c0-38.9,0-77.7,0-116.6c0-1.5-0.2-3.1-0.5-4.6
			c-1.4-5.7-6.4-9.9-12.2-10.3c-1,0-1.9,0-2.8-0.2c-0.4-0.1-0.7-0.9-1.4-2.1h4.8c25.5,0,51,0,76.6,0c8.6,0,17.1-1.1,25.5-3.2
			c0.6-0.1,1.1-0.2,1.7-0.3c0.8,2.7,1,32.9,0.3,37.1c-1.1,0.5-1.9,0.4-2-1c-0.1-1.1,0-2.1-0.1-3.2c-0.6-10.9-8-19.2-18.9-19.7
			c-12.6-0.6-25.3-0.1-37.9-0.1c-0.7,2.6-0.9,57.9-0.2,62.3c0.8,0.1,1.6,0.2,2.4,0.3c8.5,0,16.9,0,25.4,0c5.6,0.2,10.9-2.3,14.5-6.6
			c2.1-2.4,3.4-5.2,3.9-8.3c0.2-1.7,0.4-3.5,0.7-5.9c0.8,0.7,1.6,1,1.8,1.5c0.2,0.8,0.2,1.7,0.1,2.5c0,14.3,0,28.6,0,42.9
			c0.1,0.8,0,1.7-0.1,2.5C677.4,901.1,676.7,901.3,675.8,901.9z"/>
		<path id="V" class="st0" d="M483.6,956.2c-1.3,0.8-2.2,0.6-2.9-0.6c-0.5-0.9-0.9-1.9-1.4-2.9c-26.2-56.4-52.3-112.8-78.5-169.2
			c-1.6-3.8-3.9-7.4-6.8-10.4c-4.6-4.9-11-7.8-17.8-7.9c-0.5,0-0.9-0.1-1.6-0.2v-2.6h81.6c0.8,0,1.7,0,2.5,0
			c1.6,0.1,1.6,1.1,1.2,2.5c-1,0.1-2,0.1-3,0.2c-5.9,0.2-10.5,5.1-10.4,11c0,0.2,0,0.5,0,0.7c0.1,2.1,0.6,4.2,1.4,6.2
			c14.6,35.7,29.3,71.4,44,107.1c0.3,0.7,0.7,1.4,1.3,2.6c0.8-1.6,1.3-2.7,1.8-3.9c18-41.9,35.9-83.9,53.9-125.8
			c5.8-13.6,12.6-26.8,22.7-37.9c12-13.3,26.1-23.3,43.7-27.9c8.5-1.9,17.3-2.5,25.9-1.6c0.4,0.1,0.7,0.2,1.1,0.3
			c0.1,0.3,0.3,0.6,0.3,1c0,0.4-0.1,0.9-0.2,1.3c-4.2,0.7-8.4,1.1-12.4,2.1c-14.5,3.4-26.3,11.5-36.2,22.4
			c-10.9,12-18.3,26.1-24.9,40.7c-24.8,54-49.5,108.1-74.2,162.1c-1.2,2.7-2.5,5.4-3.6,8.2C487.9,941.1,485.4,948.6,483.6,956.2z"/>
		<path id="E-2" class="st0" d="M255.2,800.1h4.8c25.4,0,50.8,0,76.2,0c8.7,0,17.4-1.1,25.8-3.2c0.6-0.1,1.1-0.2,2-0.3
			c0.1,0.7,0.2,1.4,0.3,2.1c0,10.8,0,21.7,0,32.5c0,1.1,0.6,2.9-1.9,2.6c-0.2-2.1-0.4-4.2-0.7-6.3c-1.5-10.2-8.6-17.4-18.9-17.8
			c-12.5-0.5-25-0.1-37.5-0.1c-0.8,2.6-1,57.5-0.3,62.3c0.8,0.1,1.6,0.2,2.3,0.3c8.3,0,16.7,0.1,25,0c7.7-0.1,13.7-3.3,17-10.3
			c1-2.7,1.6-5.4,1.9-8.3c0.2-1.2,0.2-2.2,2-1.6v50.5c-1-1.1-1.8-1.5-1.9-2c-0.3-1.5-0.2-3.1-0.5-4.6c-1.2-7.3-7-13-14.3-14
			c-1.3-0.2-2.6-0.4-3.9-0.4c-8.6,0-17.2,0-25.8,0c-0.6,0-1.2,0.1-1.7,0.2c-0.7,2.7-1,55.2-0.3,60.2c1,0.1,2,0.2,3.1,0.2
			c8.2,0,16.5,0,24.7,0c15.5,0.1,27.4-6.5,35.5-19.6c2.3-4.2,4.3-8.5,6.1-12.9c0.5-1,0.5-2.5,2.3-2.2c0.4,2.4-3.7,22-9.1,43.4
			c-2.5,0.7-107.6,0.9-112,0.2c0.3-0.6,0.5-1.4,0.9-1.6c0.8-0.2,1.6-0.2,2.5-0.2c7.1-0.3,12.8-6,13.2-13.1c0.1-1.1,0.1-2.1,0.1-3.2
			c0-38.3,0-76.5,0-114.8c0.1-1.8-0.1-3.6-0.4-5.3c-1.5-5.7-6.5-9.9-12.4-10.2c-0.9,0-1.9,0-2.8-0.2
			C256.1,802,255.9,801.2,255.2,800.1z"/>
		<path id="T" class="st0" d="M243.7,833.4c-2.1,0.1-2.1-0.9-2.2-1.9c0-2-0.2-4-0.5-6c-2-9.8-9.3-16.1-20.2-16.5
			c-9.5-0.4-19.1-0.1-28.6,0c-0.2,0-0.4,0.2-0.9,0.4c-0.1,0.9-0.2,1.9-0.2,3c0,40.7,0.1,81.3-0.1,122c0,8.6,6.9,15.1,14.2,14.7
			c1.1-0.1,2.6-0.3,2.2,1.9h-66.1c0.9-1,1.2-1.6,1.7-1.9c0.6-0.1,1.2-0.2,1.8-0.1c7.2-0.2,13.1-5.8,13.7-13c0.1-1.2,0.1-2.4,0.1-3.6
			c0-39.5,0-78.9,0-118.4v-4.8c-1.3-0.1-2.2-0.3-3.1-0.3c-8.3,0-16.7-0.1-25,0c-2.4,0-4.8,0.3-7.1,0.9c-8.5,2-14.7,9.4-15.2,18.2
			c-0.1,1.4,0,2.9-0.3,4.3c-0.1,0.5-0.7,1-1.2,1.5c-1.2-2.5-1.6-29.5-0.7-37.4c3,0.6,5.9,1.4,8.9,1.8c6.1,0.9,12.3,1.5,18.5,1.7
			c27.3,0.2,54.6,0.1,81.9,0.1c8.7,0.2,17.4-0.9,25.8-3.2c0.7-0.2,1.4-0.3,2.4-0.5c0.5,4.3,0.2,8.4,0.2,12.5c0.1,4.2,0,8.3,0,12.5
			C243.8,825.3,243.9,829.4,243.7,833.4z"/>
		<path id="N" class="st0" d="M81.4,953.8c-2.3,0.7-3-0.7-4-1.7c-10.6-10-21.1-20-31.6-30.1c-24.1-22.9-48.2-45.9-72.3-68.8
			c-0.7-0.7-1.5-1.3-2.7-2.4c-0.1,1.6-0.2,2.6-0.2,3.6c0,26.9,0.1,53.9-0.1,80.8c-0.1,6.6,4.5,12.2,11,13.4c1.6,0.3,3.3,0,5,0.3
			c0.6,0.1,1,0.8,1.5,1.2l-0.3,0.7h-65.2l-0.3-0.6c0.5-0.4,0.9-1.1,1.5-1.2c1.1-0.1,2.1-0.1,3.2-0.1c6.7-0.1,12.3-5.4,12.7-12.2
			c0.1-1.4,0.1-2.9,0.1-4.3c0-35.4,0-70.8,0-106.2c0.2-8.9-0.5-17.9-2-26.7c-0.1-0.8-0.2-1.6-0.3-2.9c0.8,0.1,1.7,0.3,2.4,0.6
			c0.8,0.6,1.5,1.2,2.1,1.9c34.4,32.7,68.7,65.4,103.1,98.1c0.8,0.8,1.7,1.5,3,2.7c0.1-1.3,0.2-2,0.2-2.8c0-26.9-0.1-53.9,0.1-80.8
			c0.1-8.3-6.8-14.8-14.1-14.2c-0.8,0.1-1.7,0-2.5-0.2c-0.4-0.1-0.5-0.9-0.8-1.4c2.7-0.8,61.6-0.9,66-0.1c-0.6,0.7-1,1.5-1.5,1.6
			c-0.9,0.1-1.9,0.2-2.8,0.1c-7.4-0.1-13.5,5.9-13.6,13.3c0,1.1,0,2.1,0,3.2c0,35.4,0,70.8,0,106.2c-0.1,8.9,0.6,17.9,2.1,26.7
			C81.2,952.3,81.3,953,81.4,953.8z"/>
		<path id="O" class="st0" d="M-177.1,954.2c-14.8,0-29.3-1.9-42.9-8c-25.6-11.5-40.2-31.2-43.4-59.2c-1.7-12.8-0.6-25.8,3.3-38.2
			c7.4-22.8,23-37.6,45.3-45.8c12.8-4.4,26.2-6.5,39.7-6c12.2-0.1,24.3,1.9,35.8,5.9c28.1,10.6,44.9,30.5,48.6,60.6
			c2,14,0.7,28.3-4,41.6c-7.9,21.4-23.3,35.2-44.4,43.1C-151.3,952.5-164.2,954.5-177.1,954.2z M-125.3,874.6
			c-0.1-2.7-0.2-6.5-0.6-10.3c-0.7-11.2-3.7-22.2-8.8-32.2c-8.3-15.5-21-24.7-38.9-25.9c-16.5-1-30.2,4.5-40.4,17.7
			c-5.3,7-9.2,15.1-11.3,23.7c-3.2,13.3-4.1,27.2-2.6,40.8c0.7,9.9,3.3,19.6,7.6,28.5c8.3,16.5,21,26.8,40.1,27.9
			c14.6,0.8,27.3-3.4,37.4-14.3c4.9-5.4,8.7-11.7,11.4-18.5C-126.9,900.5-125.6,888.2-125.3,874.6z"/>
		<path id="V_G" class="st0" d="M1080.8-234.4c1.1,0.2,2.3,0.4,3.4,0.5c6.3,0.3,12.6,0.6,18.9,1c1.2,0.1,2.3,0.3,3.6,0.5v8.1
			c-2.3,0.2-4.7,0.4-7,0.6c-23.7,1.8-46.6,7-68.2,17.3c-15,7.2-28.7,16.6-42.1,26.3c-13.8,9.8-26.2,21.6-36.5,35
			c-6.2,8.2-12.7,16.1-19,24.1c-8.6,11.1-16.2,23-22.8,35.4C892.8-52.3,877.1-18,861.4,16.4c-69.2,151.3-138.3,302.5-207.6,453.7
			c-9.9,21.6-19.3,43.3-27.1,65.7c-1.7,5-3.3,9.9-4.7,15c-1.3,4.9-2.3,9.9-3.5,15.2h-7.2c-0.4-0.9-1.1-2-1.6-3.2
			C574,485.9,538.3,409,502.6,332c-47-101.1-93.9-202.3-140.9-303.4C351.9,7.9,336.5-7.4,315-16c-8.2-3.3-17-4.9-25.9-4.7
			c-1.6,0-3.3,0-5.2,0v-8.2h262.6v8.1c-1.4,0-2.9,0.1-4.4,0.1c-4.9-0.2-9.8,0.3-14.5,1.6c-6,1.7-11.3,5.4-15,10.4
			c-5.3,7.1-8.9,14.7-7.9,23.8c0.5,4.5,1.4,8.9,2.4,13.3c0.5,2.1,1.3,4.1,2.2,6c45.7,110.9,91.3,221.9,137,332.8
			c0.6,1.5,1.3,3,2.2,5.1c0.9-2,1.5-3.2,2-4.5c57-133,114.1-266.1,171.1-399.1c13.2-30.9,28.8-60.5,48.4-87.8
			c29.4-41.2,68.8-74.1,114.6-95.7c20.1-9.5,41.6-15.6,63.6-18.2c4.8-0.6,9.7-0.7,14.6-1.1c1.2-0.1,2.3-0.4,3.4-0.6H1080.8z"/>
		<path id="P_G" class="st0" d="M47.2,25.3v4.1c0,155.8,0,311.7,0,467.5c0,24.6,15,44.4,38.3,50.2c4.8,1,9.6,1.5,14.5,1.7
			c2.9,0.2,5.9,0,9.1,0v7.8h-244.7v-7.7c1.9-0.1,3.9-0.2,5.9-0.1c6.2,0.2,12.4-0.4,18.4-1.9c19.8-5.7,34.3-22.6,36.9-43
			c0.4-3.6,0.6-7.1,0.6-10.7c0-140.3,0-280.7,0-421c0.2-7.4-1-14.8-3.4-21.8c-5.4-14.6-15.8-23.1-31.1-25.9
			c-7.9-1.5-15.9-0.9-23.9-0.6c-0.8,0-1.7,0.1-2.8,0.2l-1.7-7.1l8-0.8c14.8-1.5,29.7-2.9,44.5-4.6c15-1.8,30.1-3.7,45-6.1
			c30.7-4.9,61.3-10.3,92-15.4c18.5-3.1,36.9-6.2,55.4-8.8c18.7-2.6,37.5-3.6,56.4-2.8c19.9,0.7,39.7,3,59.3,6.8
			c25.2,4.9,49.4,14.1,71.4,27.4c35,21.2,56.8,52.3,66.8,91.8c4.6,19.4,6.2,39.4,4.6,59.3c-0.8,16.2-3.7,32.2-8.5,47.7
			c-17.3,53.1-52.3,89.1-105.3,107.1c-14.8,5.2-30.1,8.5-45.7,9.9c-14.6,1.1-29.4,0.4-43.8-2.2c-10.4-1.5-20.6-4.1-30.5-7.6
			c-13.2-4.8-25.1-12.3-35.1-22.1c-11.1-11.3-17.4-25.1-20.5-40.6c-0.1-0.7-0.1-1.4-0.2-2.1l6.8-3.1c0.4,0.5,0.7,1,1,1.6
			c7.3,15.8,19.7,25.1,36.6,28.6c21.5,4.4,42,2,61.1-9.2c11-6.7,20.6-15.6,28.1-26.2c13-17.8,21.5-38.4,24.8-60.2
			c3.2-20.2,3.6-40.7,1.3-60.9c-2-18.8-6.4-37.1-15.4-54c-15.2-28.6-39.1-45.6-70.5-52.2c-18-3.8-36-3.3-54.1-0.5
			c-15.3,2.4-30.6,4.6-46,6.9C49.8,24.8,48.6,25,47.2,25.3z"/>
		<path id="P_G_1_" class="st0" d="M-389.8,768.4v1.5c0,55.2,0,110.4,0,165.6c0,8.7,5.3,15.7,13.6,17.8c1.7,0.3,3.4,0.5,5.1,0.6
			c1,0.1,2.1,0,3.2,0v2.8h-86.7v-2.7c0.7,0,1.4-0.1,2.1-0.1c2.2,0.1,4.4-0.2,6.5-0.7c7-2,12.2-8,13.1-15.2c0.1-1.3,0.2-2.5,0.2-3.8
			c0-49.7,0-99.4,0-149.2c0.1-2.6-0.4-5.2-1.2-7.7c-1.9-5.2-5.6-8.2-11-9.2c-2.8-0.5-5.6-0.3-8.5-0.2c-0.3,0-0.6,0-1,0.1l-0.6-2.5
			l2.8-0.3c5.3-0.5,10.5-1,15.7-1.6c5.3-0.6,10.6-1.3,15.9-2.2c10.9-1.7,21.7-3.6,32.6-5.4c6.5-1.1,13.1-2.2,19.6-3.1
			c6.6-0.9,13.3-1.3,20-1c7.1,0.3,14.1,1.1,21,2.4c8.9,1.7,17.5,5,25.3,9.7c12.4,7.5,20.1,18.5,23.7,32.5c1.6,6.9,2.2,14,1.6,21
			c-0.3,5.7-1.3,11.4-3,16.9c-6.1,18.8-18.5,31.5-37.3,37.9c-5.2,1.8-10.7,3-16.2,3.5c-5.2,0.4-10.4,0.1-15.5-0.8
			c-3.7-0.5-7.3-1.4-10.8-2.7c-4.7-1.7-8.9-4.4-12.4-7.8c-3.9-4-6.2-8.9-7.3-14.4c0-0.2-0.1-0.5-0.1-0.7l2.4-1.1
			c0.1,0.2,0.3,0.4,0.4,0.6c2.6,5.6,7,8.9,13,10.1c7.6,1.6,14.9,0.7,21.6-3.3c3.9-2.4,7.3-5.5,9.9-9.3c4.6-6.3,7.6-13.6,8.8-21.3
			c1.1-7.1,1.3-14.4,0.5-21.6c-0.7-6.7-2.3-13.1-5.5-19.1c-5.4-10.1-13.8-16.1-25-18.5c-6.4-1.3-12.8-1.2-19.2-0.2
			c-5.4,0.9-10.9,1.6-16.3,2.5C-388.9,768.2-389.3,768.3-389.8,768.4z"/>
	</g>
</g>
</svg>
