<svg xmlns="http://www.w3.org/2000/svg" width="126.546" height="24.065" viewBox="0 0 126.546 24.065">
  <g id="Grupo_451" data-name="Grupo 451" transform="translate(-79.137 -55.897)">
    <path id="Trazado_20" data-name="Trazado 20" d="M82.766,79.323a1.456,1.456,0,1,1-2.86,0V59.4a1.456,1.456,0,1,1,2.86,0Z" transform="translate(-0.566 -1.306)" fill="#d9000d"/>
    <path id="Trazado_21" data-name="Trazado 21" d="M80.769,80.694a1.806,1.806,0,0,1-1.632-1.935V58.839a1.656,1.656,0,1,1,3.266,0v19.92a1.806,1.806,0,0,1-1.634,1.935m0-23.384a1.4,1.4,0,0,0-1.226,1.529v19.92a1.257,1.257,0,1,0,2.454,0V58.839a1.4,1.4,0,0,0-1.228-1.529" transform="translate(0 -0.741)" fill="#d9000d"/>
    <path id="Trazado_22" data-name="Trazado 22" d="M197.285,78.561a1.46,1.46,0,1,1-2.86,0V58.416a1.46,1.46,0,1,1,2.86,0Z" transform="translate(-84.843 -0.564)" fill="#d9000d"/>
    <path id="Trazado_23" data-name="Trazado 23" d="M195.288,79.952A1.818,1.818,0,0,1,193.656,78V57.851a1.659,1.659,0,1,1,3.264,0V78a1.818,1.818,0,0,1-1.632,1.955m0-23.65a1.418,1.418,0,0,0-1.226,1.548V78a1.261,1.261,0,1,0,2.454,0V57.851a1.418,1.418,0,0,0-1.228-1.548" transform="translate(-84.277)" fill="#d9000d"/>
    <path id="Trazado_24" data-name="Trazado 24" d="M120.431,89.5a1.473,1.473,0,1,1-2.187,1.841L104.7,75.262a1.473,1.473,0,1,1,2.188-1.842Z" transform="translate(-18.438 -12.34)" fill="#d9000d"/>
    <path id="Trazado_25" data-name="Trazado 25" d="M119.161,91.74a2.2,2.2,0,0,1-1.632-.827L103.988,74.829a1.867,1.867,0,0,1-.057-2.6,1.417,1.417,0,0,1,.924-.323,2.2,2.2,0,0,1,1.632.824l13.539,16.084a1.867,1.867,0,0,1,.06,2.606,1.41,1.41,0,0,1-.925.325M104.854,72.305a1.013,1.013,0,0,0-.664.229,1.47,1.47,0,0,0,.108,2.033l13.54,16.085a1.793,1.793,0,0,0,1.322.682,1.022,1.022,0,0,0,.665-.228,1.473,1.473,0,0,0-.11-2.034l-13.54-16.085a1.793,1.793,0,0,0-1.322-.682" transform="translate(-17.878 -11.778)" fill="#d9000d"/>
    <path id="Trazado_26" data-name="Trazado 26" d="M136.03,74.976a1.473,1.473,0,1,1-2.187,1.842L120.3,60.734a1.473,1.473,0,1,1,2.188-1.842Z" transform="translate(-29.917 -1.649)" fill="#d9000d"/>
    <path id="Trazado_27" data-name="Trazado 27" d="M134.759,77.209a2.2,2.2,0,0,1-1.631-.826L119.587,60.3a1.868,1.868,0,0,1-.059-2.606,1.418,1.418,0,0,1,.926-.323,2.2,2.2,0,0,1,1.631.826l13.541,16.083a1.869,1.869,0,0,1,.059,2.607,1.416,1.416,0,0,1-.925.323m-14.3-19.433a1.011,1.011,0,0,0-.664.228,1.472,1.472,0,0,0,.108,2.034l13.539,16.083a1.8,1.8,0,0,0,1.322.682,1.015,1.015,0,0,0,.665-.228,1.474,1.474,0,0,0-.11-2.034L121.776,58.457a1.8,1.8,0,0,0-1.322-.682" transform="translate(-29.357 -1.084)" fill="#d9000d"/>
    <g id="Grupo_359" data-name="Grupo 359" transform="translate(122.189 56.884)">
      <path id="Trazado_28" data-name="Trazado 28" d="M254.675,62.356V74.9h-.646l-7.063-9.519c-1.076-1.452-1.4-1.971-1.415-1.971h-.018c-.018,0,.035,1.38.035,2.993v8.5h-.68V62.356h.645L252.56,71.8c1.021,1.362,1.452,1.971,1.469,1.971h.018c.018,0-.053-1.4-.053-2.975V62.356Z" transform="translate(-244.168 -61.637)" fill="#fff"/>
      <path id="Trazado_29" data-name="Trazado 29" d="M253.388,73.619h-1.725l-7.279-9.81-.108-.144c0,.237,0,.485,0,.738v9.216h-2.117V59.634h1.724l7.242,9.738c.051.065.1.13.146.192,0-.247-.005-.506-.005-.769V59.634h2.118Z" transform="translate(-242.163 -59.634)" fill="#fff"/>
      <path id="Trazado_30" data-name="Trazado 30" d="M304.754,62.356v7.529c0,3.442-1.721,5.289-4.966,5.289-3.262,0-4.947-1.847-4.947-5.289V62.356h.68v7.6c0,2.993,1.452,4.552,4.266,4.552,2.833,0,4.267-1.558,4.267-4.552v-7.6Z" transform="translate(-280.93 -61.637)" fill="#fff"/>
      <path id="Trazado_31" data-name="Trazado 31" d="M297.783,73.887c-3.652,0-5.666-2.133-5.666-6.007V59.633h2.117v8.32c0,2.616,1.128,3.834,3.548,3.834s3.549-1.219,3.549-3.834v-8.32h2.135v8.248c0,3.817-2.072,6.007-5.684,6.007" transform="translate(-278.925 -59.633)" fill="#fff"/>
      <path id="Trazado_32" data-name="Trazado 32" d="M347.464,70.962h-6.9L338.807,74.9h-.736l5.647-12.547h.591L349.956,74.9h-.735Zm-.286-.629L344.6,64.544c-.269-.61-.557-1.363-.574-1.363H344c-.017,0-.3.753-.573,1.363l-2.581,5.789Z" transform="translate(-312.743 -61.638)" fill="#fff"/>
      <path id="Trazado_33" data-name="Trazado 33" d="M347.973,73.619h-2.312L343.9,69.675h-5.969l-1.756,3.944h-2.313l6.294-13.985h1.518Zm-9.111-6.008h4.114L340.92,63Z" transform="translate(-309.649 -59.634)" fill="#fff"/>
      <path id="Trazado_34" data-name="Trazado 34" d="M400.527,74.241V74.9h-7.816V62.355h.682V74.241Z" transform="translate(-352.954 -61.636)" fill="#fff"/>
      <path id="Trazado_35" data-name="Trazado 35" d="M399.245,73.619h-9.252V59.634h2.117V71.518h7.134Z" transform="translate(-350.953 -59.633)" fill="#fff"/>
      <path id="Trazado_36" data-name="Trazado 36" d="M437.668,70.962h-6.9L429.01,74.9h-.735l5.647-12.547h.591L440.161,74.9h-.735Zm-.288-.629L434.8,64.544c-.269-.61-.555-1.363-.574-1.363h-.017c-.018,0-.305.753-.573,1.363l-2.583,5.789Z" transform="translate(-379.126 -61.638)" fill="#fff"/>
      <path id="Trazado_37" data-name="Trazado 37" d="M438.177,73.619h-2.314l-1.757-3.944h-5.968l-1.757,3.944H424.07l6.293-13.985h1.52Zm-9.111-6.008h4.114L431.123,63Z" transform="translate(-376.032 -59.634)" fill="#fff"/>
      <path id="Trazado_38" data-name="Trazado 38" d="M490.406,74.9l-3.1-5.055a6.292,6.292,0,0,1-1.023.072h-2.689V74.9h-.681V62.356h3.37c2.833,0,4.535,1.433,4.535,3.8a3.48,3.48,0,0,1-2.831,3.566l3.227,5.18Zm-4.123-5.593c2.492,0,3.837-1.255,3.837-3.154,0-2.063-1.488-3.139-3.837-3.139h-2.689v6.293Z" transform="translate(-419.335 -61.637)" fill="#fff"/>
      <path id="Trazado_39" data-name="Trazado 39" d="M490.507,73.618h-2.5l-3.071-5.006c-.2.015-.414.022-.651.022h-1.97v4.983H480.2V59.633h4.088c3.24,0,5.254,1.732,5.254,4.52a4.1,4.1,0,0,1-2.468,3.945Zm-8.193-7.029h1.97c1.165,0,3.118-.317,3.118-2.436,0-2-1.695-2.42-3.118-2.42h-1.97Z" transform="translate(-417.336 -59.633)" fill="#fff"/>
      <path id="Trazado_40" data-name="Trazado 40" d="M529.183,62.356v.662h-4.391V74.9h-.7V63.018H519.7v-.662Z" transform="translate(-446.408 -61.637)" fill="#fff"/>
      <path id="Trazado_41" data-name="Trazado 41" d="M523.509,73.619h-2.136V61.733h-4.391v-2.1H527.9v2.1h-4.392Z" transform="translate(-444.408 -59.633)" fill="#fff"/>
      <rect id="Rectángulo_19" data-name="Rectángulo 19" width="0.388" height="5.575" transform="translate(14.789 17.428)" fill="#fff"/>
      <path id="Trazado_42" data-name="Trazado 42" d="M311.732,131.2h-.392l-3.3-4.949h-.03c.03.59.046,1.034.046,1.334V131.2h-.374v-5.575h.39l3.3,4.942h.024c-.024-.458-.035-.891-.035-1.3v-3.637h.377Z" transform="translate(-290.377 -108.2)" fill="#fff"/>
      <path id="Trazado_43" data-name="Trazado 43" d="M333.529,131.2l-2.078-5.147h-.031q.031.473.031.968V131.2h-.373v-5.575h.6l1.976,4.9h.022l1.975-4.9h.587V131.2h-.393v-4.225q0-.443.046-.915h-.031l-2.085,5.14Z" transform="translate(-307.597 -108.2)" fill="#fff"/>
      <path id="Trazado_44" data-name="Trazado 44" d="M362.514,128.162a3.117,3.117,0,0,1-.663,2.1,2.552,2.552,0,0,1-3.657,0,3.124,3.124,0,0,1-.663-2.107,3.073,3.073,0,0,1,.67-2.1,2.305,2.305,0,0,1,1.827-.765,2.282,2.282,0,0,1,1.827.768,3.122,3.122,0,0,1,.66,2.1m-4.561,0a2.856,2.856,0,0,0,.534,1.852,2.137,2.137,0,0,0,3.071.005,2.861,2.861,0,0,0,.532-1.857,2.831,2.831,0,0,0-.532-1.847,2.141,2.141,0,0,0-3.064.007,2.794,2.794,0,0,0-.541,1.841" transform="translate(-327.064 -107.954)" fill="#fff"/>
      <path id="Trazado_45" data-name="Trazado 45" d="M383.322,125.628h1.529a2.613,2.613,0,0,1,1.518.351,1.223,1.223,0,0,1,.484,1.059,1.148,1.148,0,0,1-.3.807,1.429,1.429,0,0,1-.862.412v.024a1.675,1.675,0,0,1,.982.422,1.23,1.23,0,0,1,.315.9,1.445,1.445,0,0,1-.512,1.187,2.243,2.243,0,0,1-1.448.415h-1.708Zm.389,2.483h1.227a1.965,1.965,0,0,0,1.141-.261.949.949,0,0,0,.357-.818.886.886,0,0,0-.4-.809,2.3,2.3,0,0,0-1.2-.251h-1.124Zm0,.342v2.406h1.311q1.547,0,1.548-1.258,0-1.147-1.631-1.148Z" transform="translate(-346.044 -108.2)" fill="#fff"/>
      <rect id="Rectángulo_20" data-name="Rectángulo 20" width="0.389" height="5.575" transform="translate(42.72 17.428)" fill="#fff"/>
      <path id="Trazado_46" data-name="Trazado 46" d="M413.451,131.2v-5.575h.388v5.208H416.5v.367Z" transform="translate(-368.217 -108.2)" fill="#fff"/>
      <rect id="Rectángulo_21" data-name="Rectángulo 21" width="0.389" height="5.575" transform="translate(49.787 17.428)" fill="#fff"/>
      <path id="Trazado_47" data-name="Trazado 47" d="M440.7,129.173h-2.266l-.777,1.967h-.431l2.243-5.6h.248l2.2,5.6h-.439Zm-2.124-.351h1.994l-.759-2.01q-.094-.236-.228-.655a5.834,5.834,0,0,1-.226.663Z" transform="translate(-385.711 -108.137)" fill="#fff"/>
      <path id="Trazado_48" data-name="Trazado 48" d="M460.418,128.772v2.43h-.388v-5.575h1.326a2.488,2.488,0,0,1,1.532.385,1.367,1.367,0,0,1,.5,1.153,1.509,1.509,0,0,1-.295.946,1.647,1.647,0,0,1-.9.553L463.7,131.2h-.465l-1.438-2.43Zm0-.335h1.064a1.7,1.7,0,0,0,1.094-.315,1.122,1.122,0,0,0,.39-.927,1.09,1.09,0,0,0-.382-.927,2.078,2.078,0,0,0-1.244-.29h-.922Z" transform="translate(-402.495 -108.199)" fill="#fff"/>
      <rect id="Rectángulo_22" data-name="Rectángulo 22" width="0.389" height="5.575" transform="translate(62.72 17.428)" fill="#fff"/>
      <path id="Trazado_49" data-name="Trazado 49" d="M489.673,129.173h-2.264l-.778,1.967h-.43l2.241-5.6h.248l2.2,5.6h-.438Zm-2.124-.351h1.995l-.759-2.01c-.064-.157-.14-.376-.229-.655a6.124,6.124,0,0,1-.225.663Z" transform="translate(-421.754 -108.137)" fill="#fff"/>
    </g>
  </g>
</svg>
